/* XPM */
static char *_7ac8da6d4e740ecae8720c57b2d7068QClwyQG4Jk49OkmD[] = {
/* columns rows colors chars-per-pixel */
"200 20 64 1 ",
"  c black",
". c black",
"X c black",
"o c black",
"O c black",
"+ c black",
"@ c black",
"# c black",
"$ c black",
"% c black",
"& c black",
"* c black",
"= c black",
"- c black",
"; c black",
": c black",
"> c black",
", c white",
"< c white",
"1 c white",
"2 c white",
"3 c white",
"4 c white",
"5 c white",
"6 c white",
"7 c white",
"8 c white",
"9 c white",
"0 c white",
"q c white",
"w c white",
"e c white",
"r c white",
"t c white",
"y c white",
"u c white",
"i c white",
"p c white",
"a c white",
"s c white",
"d c white",
"f c white",
"g c white",
"h c white",
"j c white",
"k c white",
"l c white",
"z c white",
"x c white",
"c c white",
"v c white",
"b c white", 
"n c white",
"m c white",
"M c white",
"N c white",
"B c white",
"V c white",
"C c white",
"Z c white",
"A c white",
"S c white",
"D c white",
"F c white",
/* pixels */
"avvvvvvvvvvvvvvvvvvvvvvvvvvvvvvvvvvvvvvvvvvvvvvvvvvvvvvvvvvvvvvvvvvvvvvvvvvvvvvvvvvvvvvvvvvvvvvvvvvvvvvvvvvvvvvvvvvvvvvvvvvvvvvvvvvvvvvvvvvvvvvvvvvvvvvvvvvvvvvvvvvvvvvvvvvvvvvvvvvvvvvvvvvvvvvvvvvvvvva",
"vFFFFFFFFFFFFFFFFFFFFFFFFFFFFFFFFFFFFFFFFFFFFFFFFFFFFFFFFFFFFFFFFFFFFFFFFFFFFFFFFFFFFFFFFFFFFFFFFFFFFFFFFFFFFFFFFFFFFFFFFFFFFFFFFFFFFFFFFFFFFFFFFFFFFFFFFFFFFFFFFFFFFFFFFFFFFFFFFFFFFFFFFFFFFFFFFFFFFFFv",
"vFFFFFFFFFFFFFFFFFFFFFFFFFFFFFFFFFFFFFFFFFFFFFFFFFFFFFFFFFFFFFFFFFFFFFFFFFFFFFFFFFFFFFFFFFFFFFFFFFFFFFFFFFFFFFFFFFFFFFFFFFFFFFFFFFFFFFFFFFFFFFFFFFFFFFFFFFFFFFFFFFFFFFFFFFFFFFFFFFFFFFFFFFFFFFFFFFFFFFFv",
"vFFFFFFFFFFFFFFFFFFFFFFFFFFFFFFFFFFFFFFFFFFFFFFFFFFFFFFFFFFFchZFFFFFFFFFFFFFFFFFFSvfdhCFFFFFFFFFFFFFFFFFFFFFFFFFFFFSjxDFFFFFFFFFFFFFFFFFFFFFFFFFFFFFFFFFFFFFFFFFFFFFFFFFFFFFFFFFFFFFFFFFFFFFFFFFFFFFFFFv",
"vFFFFFFFFFFFFFFFFFFFFFFFFFFFFFFFFFFFFFFFFFFFFFFFFFFFFFFFFFFD5@bFFFFFFFFFFFFFFFFFS0+.X+kFFFFFFFFFFFFFFFFFFFFFFFFFFFFV&,AFFFFFFFFFFFFFFFFFFFFFFFFFFFFFFFFFFFFFFFFFFFFFFFFFFFFFFFFFFFFFFFFFFFFFFFFFFFFFFFFv",
"vFFFFACCZDFFFFFZVNCDFFFFDVNCDFFFFFACCCAFFFFDCCCZFFFFFFFFFFFS3ovFFFFFFFFFFFFFFFFFzo%tpaNFFDCNVSFFFFFZBNCDFFFFFFFFFFFB$:AFDCCDFFFABBAFFFSCSFFFZZFFSCCDZCSFFFZCCCSFFFFDZCCAFFFFFFFFFFFFFFFFFFFFFFFFFFFFFFFv",
"vFFFl,=*-0MFFVt:%#*0VFFZe*#*wCFFAs<*%%8SFFz5=&%,BFFFFFFFFFFS4OvFFFFFFFFFFFFFFFZBy.0VVVSFB0&#%4vFFNe;$#*eZFFFFFFFFFFB$>ASy=8VFFx1$$,kFFg-fFFZ24Zx2*=6:&4MFA4%%*2jFFZ0-*=<gDFFFFFFFFFFFFFFFFFFFFFFFFFFFFFv",
"vFFA< ;,=.<VFgX#47=.wFFeX;7=.qDFpX+;>>eSFv%X=>>5VFFFFFFFFFFS4OvFFFFFFFFFFFFFFFe@O O##%lD7.-8,.;NFs.%46%.uFFFFFFFFFFB$>Vto>nFFM=O43+$cFa.pFFC&-C7.7, >7XqFA9>>-X#cFgX#,:+OfFFFFFFFFFFFFFFFFFFFFFFFFFFFFFv",
"vFFZ=&NAV6.fFd.rDFb@=ZM$-NFm*%BS<OjAAASFFp wZAAAFFFFFFFFFFFS4OvFFFFFFFFFFFFFFFg8> :880mv+:NFZ7.sFa.uFFzO>AFFFFFFFFFB%-0o,mFFFy.tDDi.eFa.pFFC*-C6#BdXpC&>AFSAAZw iFp.uSAj+>AFFFFFFFFFFFFFFFFFFFFFFFFFFFFv",
"vFFC==ZFFd.iFf.yFFSyrSg.8BBM1ObD6XrNSFFFFf.2vAFFFFFFFFFFFFFS4OvFFFFFFFFFFFFFFFFFa.iFFFFs.yFFFh.0Fa.pFFArySFFFFFFFFFB%X.=mFFFA1OkVVjo4Fa.pFFC*-C6$VfXaZ*:AFDCBVi.uFp.aFFZ-&CFFFFFFFFFFFFFFFFFFFFFFFFFFFFv",
"vFFC==ZFS0.sFf.yFFFFFFa.+$$$X#MFb,O$1aCFFZ9@@;enFFFFFFFFFFFS4OvFFFFFFFFFFFFFFFFFa.pFFFFp.aFFFvO4Fa.pFFFFFFFFFFFFFFFB%$%#xFFFZ; #$$# 9Fs.rFFZ*-C6$VfXaZ*>AN7&$$+ uFp.aFFc#;ZFFFFFFFFFFFFFFFFFFFFFFFFFFFFv",
"vFFC=#yi5o=MFf.yFFFFFFs.-7668dSFFZke;o5AFFSvi2+*bFFFFFFFFFFS4OvFFFFFFFFFFFFFFFFFa.pFFFFp.pFFFxo6Fa.pFFFFFFFFFFFFFFFB$>d+:BFFZ:X3767wnFv#@qpy@-C6$VfXaZ*>C7.;67> uFp.4pr*XuFFFFFFFFFFFFFFFFFFFFFFFFFFFFFv",
"vFFC- Xo+<xFFf.yFFFFFFzo2AFFFFFFFFFFV>ObFFFFFDr iFFFFFFFFFFS4ObFFFFFFFFFFFFFFFFFa.pFFFFg.0FFFs.rFa.pFFFFFFFFFFFFFFFB$>ZtX8SFD7XgFFFFFFFf=oXX ;C6$VfXaZ*>N-$MFFd.uFp Xoo&tAFFFFFFFFFFFFFFFFFFFFFFFFFFFFFv",
"vFFC=$sjbAFFFf.yFFFFFFA<XqzvvCFFNvcki$$MFCvvzf1.sFFFFFFFFFFS4odvvvvZFFFFFFFFFFFFa.pFFFFN&@fVz;okFa.pFFFFFFFFFFFFFFFB$:AA4XpFFjO=dcvnDFFFVzhs#-C6$VfXaZ*>V3Xtcbw uFp.8hzBFFFFFFFFFFFFFFFFFFFFFFFFFFFFFFFv",
"vFFC==ZFFFFFFd.yFFFFFFFc-.oO+sFD9oOX.@tDFf+Oo.o4VFFFFFFFFFFS4 oOOO@gFFFFFFFFFFFFa.iFFFFFa+X$OX9SFa.pFFFFFFFFFFFFFFFB$:ZFm=#lFSr+.oo;CFFFFFFC&;C6#VfXpZ*:Az%.OOX+kFp.aFFFFFFFFFFFFFFFFFFFFFFFFFFFFFFFFFFv",
"vFFC==CFFFFFFntxFFFFFFFFNaw0rbFFkq0epcDFFnr0wujZFFFFFFFFFFFDhrtttrtnFFFFFFFFFFFFvtcFFFFFDlw49fAFFvtvFFFFFFFFFFFFFFFAidSFFxrjDFDzt0qaSFFSZZVuX3AjiAnyvSpdSFbpttykSFp.aFFFFFFFFFFFFFFFFFFFFFFFFFFFFFFFFFFv",
"vFFC**CFFFFFFFFFFFFFFFFFFFFFFFFFFFFFFFFFFFFFFFFFFFFFFFFFFFFFFFFFFFFFFFFFFFFFFFFFFFFFFFFFFFFDFFFFFFFFFFFFFFFFFFFFFFFFFFFFFFFFFFFFFFFFFFFd;;&X#kFFFFFFFFFFFFFFFFFFFFp aFFFFFFFFFFFFFFFFFFFFFFFFFFFFFFFFFFv",
"vFFZ55ZFFFFFFFFFFFFFFFFFFFFFFFFFFFFFFFFFFFFFFFFFFFFFFFFFFFFFFFFFFFFFFFFFFFFFFFFFFFFFFFFFFFFFFFFFFFFFFFFFFFFFFFFFFFFFFFFFFFFFFFFFFFFFFFFf==;7zFFFFFFFFFFFFFFFFFFFFFg:hFFFFFFFFFFFFFFFFFFFFFFFFFFFFFFFFFFv",
"vFFFAAFFFFFFFFFFFFFFFFFFFFFFFFFFFFFFFFFFFFFFFFFFFFFFFFFFFFFFFFFFFFFFFFFFFFFFFFFFFFFFFFFFFFFFFFFFFFFFFFFFFFFFFFFFFFFFFFFFFFFFFFFFFFFFFFFDZZZDFFFFFFFFFFFFFFFFFFFFFFDZDFFFFFFFFFFFFFFFFFFFFFFFFFFFFFFFFFFv",
"avvvvvvvvvvvvvvvvvvvvvvvvvvvvvvvvvvvvvvvvvvvvvvvvvvvvvvvvvvvvvvvvvvvvvvvvvvvvvvvvvvvvvvvvvvvvvvvvvvvvvvvvvvvvvvvvvvvvvvvvvvvvvvvvvvvvvvvvvvvvvvvvvvvvvvvvvvvvvvvvvvvvvvvvvvvvvvvvvvvvvvvvvvvvvvvvvvvvvva"
};
