/* XPM */
static char *keys0[] = {
/* columns rows colors chars-per-pixel */
"198 26 2 1 ",
"  c black",
". c white",
/* pixels */
"......................................................................................................................................................................................................",
"......................................................................................................................................................................................................",
"......................................................................................................................................................................................................",
".....................................................................................................................................................  ...............................................",
"...............................................................    ................ .................................................................. ...............................................",
"................................................................ .................. .................................................................. ...............................................",
"....  .    ....   .   ....    .....     .....     .............. ................       .....    ...............     .....    .....    ............... ..   ....    ....   ..   ...     ..............",
".....  .... .....  ...... .... .... ... ....  ... .............. .................. ........  ... .............  ... .... .... ...  ...  ............. .. ..... .... .... .... .... ... ..............",
".....  ..... .... ...... ...... ... ......... .................. .................. ........ ..... ............. ....... ...... .. ..... .............   ...... ..... ...  ... .... ..................",
".....  ..... .... ......        ....    ......    .............. .................. ........ ..... ..............    ...        ..       .............   .....        .... .. ......    ..............",
".....  ..... .... ...... ............... ........  ............. .... ............. ........ ..... .................  .. ......... ................... .. ..... ..........  . .......... .............",
".....   ... ..... ....... ........  ...  ... .... .............. .... ............. ........  ... ............. .... .... ........  .... ............. ... .... ..... .....  .....  ...  .............",
"..... ..   ....      .....     ...      ....      .............       ..............    .....    ..............      .....     .....    .............  ...   ...     ......  .....      ..............",
"..... ..................................................................................................................................................................... ..........................",
"..... ..................................................................................................................................................................... ..........................",
"....    ................................................................................................................................................................     .........................",
"......................................................................................................................................................................................................",
"......................................................................................................................................................................................................",
"......................................................................................................................................................................................................",
"......................................................................................................................................................................................................",
"......................................................................................................................................................................................................",
"......................................................................................................................................................................................................",
"......................................................................................................................................................................................................",
"......................................................................................................................................................................................................",
"......................................................................................................................................................................................................",
"......................................................................................................................................................................................................"
};
