/* XPM */
static char *d5ebc95fd686422dc7abc983e5dff3a157gAVQp2LiZ00GbL[] = {
/* columns rows colors chars-per-pixel */
"198 26 191 2 ",
"   c white",
".  c gray90",
"X  c gray99",
"o  c #3A3A3A",
"O  c #090909",
"+  c #F4F4F4",
"@  c #5B5B5B",
"#  c #111111",
"$  c gray13",
"%  c gray40",
"&  c gray58",
"*  c gray5",
"=  c #191919",
"-  c gray83",
";  c gray21",
":  c gray22",
">  c #646464",
",  c gray77",
"<  c gray62",
"1  c gray27",
"2  c #EFEFEF",
"3  c gray19",
"4  c gray50",
"5  c #181818",
"6  c #989898",
"7  c gray48",
"8  c #323232",
"9  c #2A2A2A",
"0  c gray28",
"q  c gray81",
"w  c #606060",
"e  c #202020",
"r  c #6C6C6C",
"t  c gainsboro",
"y  c gray32",
"u  c gray16",
"i  c #505050",
"p  c #F3F3F3",
"a  c LightGray",
"s  c gray30",
"d  c #2F2F2F",
"f  c gray37",
"g  c #E7E7E7",
"h  c gray56",
"j  c #252525",
"k  c #373737",
"l  c #4B4B4B",
"z  c #AAAAAA",
"x  c gray96",
"c  c #686868",
"v  c #1E1E1E",
"b  c #2D2D2D",
"n  c gray25",
"m  c #7E7E7E",
"M  c #5D5D5D",
"N  c #F9F9F9",
"B  c gray57",
"V  c gray17",
"C  c gray3",
"Z  c #2C2C2C",
"A  c #F8F8F8",
"S  c #808080",
"D  c gray24",
"F  c #BCBCBC",
"G  c #FBFBFB",
"H  c gray54",
"J  c #353535",
"K  c #A7A7A7",
"L  c #1B1B1B",
"P  c #101010",
"I  c #4C4C4C",
"U  c #ECECEC",
"Y  c #313131",
"T  c gray18",
"R  c #CBCBCB",
"E  c #0E0E0E",
"W  c #8D8D8D",
"Q  c gray9",
"!  c #F6F6F6",
"~  c #909090",
"^  c gray60",
"/  c #FEFEFE",
"(  c gray79",
")  c #282828",
"_  c #D8D8D8",
"`  c #B6B6B6",
"'  c gray82",
"]  c #B7B7B7",
"[  c gray75",
"{  c #3E3E3E",
"}  c #F1F1F1",
"|  c gray97",
" . c gray61",
".. c #767676",
"X. c gray98",
"o. c #E4E4E4",
"O. c gray12",
"+. c gray",
"@. c #6F6F6F",
"#. c #898989",
"$. c #DFDFDF",
"%. c #B4B4B4",
"&. c gray39",
"*. c gray93",
"=. c gray35",
"-. c #959595",
";. c gray69",
":. c gray88",
">. c gray68",
",. c #D7D7D7",
"<. c #272727",
"1. c gray87",
"2. c #AFAFAF",
"3. c gray42",
"4. c gray94",
"5. c #5F5F5F",
"6. c gray78",
"7. c #232323",
"8. c gray66",
"9. c #D2D2D2",
"0. c #DADADA",
"q. c gray92",
"w. c gray14",
"e. c DimGray",
"r. c gray34",
"t. c #E9E9E9",
"y. c gray53",
"u. c #434343",
"i. c #9F9F9F",
"p. c #515151",
"a. c #848484",
"s. c #8E8E8E",
"d. c #DDDDDD",
"f. c gray31",
"g. c #393939",
"h. c gray49",
"j. c #444444",
"k. c #E1E1E1",
"l. c #838383",
"z. c #656565",
"x. c gray63",
"c. c #9D9D9D",
"v. c #FDFDFD",
"b. c #B9B9B9",
"n. c gray8",
"m. c #494949",
"M. c gray20",
"N. c #797979",
"B. c #484848",
"V. c gray84",
"C. c #676767",
"Z. c #BBBBBB",
"A. c #6D6D6D",
"S. c #929292",
"D. c #AEAEAE",
"F. c #585858",
"G. c #E6E6E6",
"H. c #3C3C3C",
"J. c #B2B2B2",
"K. c #343434",
"L. c #7B7B7B",
"P. c gray59",
"I. c #555555",
"U. c gray43",
"Y. c gray95",
"T. c gray89",
"R. c #C5C5C5",
"E. c #4E4E4E",
"W. c #D0D0D0",
"Q. c #8B8B8B",
"!. c #B1B1B1",
"~. c #777777",
"^. c gray46",
"/. c #ACACAC",
"(. c #414141",
"). c gray71",
"_. c gray33",
"`. c #CECECE",
"'. c #A5A5A5",
"]. c gray36",
"[. c gray29",
"{. c #939393",
"}. c gray7",
"|. c #C0C0C0",
" X c gray73",
".X c gray23",
"XX c gray4",
"oX c #C8C8C8",
"OX c gray10",
"+X c gray51",
"@X c #1D1D1D",
/* pixels */
"                                                                                                                                                                                                                                                                                                                                                                                                            ",
"                                                                                                                                                                                                                                                                                                                                                                                                            ",
"                                                                                                                                                                                                                                                                                                                                                                                                            ",
"                                                                                                                                                                                                                                                                                                                                                                                                            ",
"                                                                                                                                                                                                                                                                                                                                                                                                            ",
"                                                                                                                                                                            .                                                                                                                                 X o O +                                                                                       ",
"                                                                                                                                  @ # $ %   & * = -                       X ;                                                                                                                                     : +                                                                                       ",
"                                                                                                                                    > ,     < 1 2                         X 3                                                                                                                                     : +                                                                                       ",
"              4 5 6 7 8 9 0 q       w e r t y u i p     a s d d f g         h j u k l z       x c v b n o .                         > ,   m M N                         B V C Z Z Z 7         A S 8 V D F                           x c v b n o .       a s d d f g       G H J b : K                             : + p L P I       U c Y T 0 R       y E %     W Q j !     h j u k l z                     ",
"                ~ Q ^ /   ( ) _       F J : R   ` p   _ 3 '     ] Y p     [ { }   | I  .      4 ..X.  o.O.t                         > +.M @.                              X 3                 i #.G   $.D %.                        4 ..X.  o.O.t     _ 3 '     ] Y p     &.m A   *.=.-.                          : + ;.J :.      | ; >.    ,.J q     p <.+       1 1.    [ { }   | I  .                    ",
"                ~ w         2.3.      F ; 4.          5.6.        6 B     t 7.8.9.! + !       8.o ] 0.X q.                          > w.e.Z ]                             X 3               6.r.        t.8                         8.o ] 0.X q.      5.6.        6 B   $.0         G T                           : y.u.4.        i.y.        ,.p.      a.s.    6.f       t 7.8.9.! + !                     ",
"                ~ s.        d.f.      F r             g.9 Z Z Z Z Z h.      $.W c D j.k.        6.l.f Y z.N                         > x.  o.) $.                          X 3               c.s.          9 v.                        6.l.f Y z.N     g.9 Z Z Z Z Z h.  b.n.Z Z Z Z Z Z g                         : m.M.q.        N.O.Z Z Z Z Z B.      4.u A   f.V.        $.W c D j.k.                    ",
"                ~ I          .l.      F r             C.Z.                $.        >.y       $.        A.S.                        > ,     D.=.                          X d               6.F.        q.Y                         $.        A.S.    C.Z.              G.H.                                      : p J.K.*.      K L.                    h.P.9.I.        $.        >.y                     ",
"                ~ 9 U.k.2 i.8 Y.      F r             T.3 R.    x ^ %.    p.y.|   x l.C.      Q Z.X   q.E.K                         > ,       d T.                          $ _     W.D.      i Q.X   o.n !.                        Q Z.X   q.E.K     T.3 R.    x ^ %.    ~.U.Y.    W.^.v.                        : +   /.; 2     G (.< v.  v.).~         *.V _.`.        p.y.|   x l.C.                    ",
"                ~  .'.i D ~.4.    T.J 7.n.3 3 %         k.].J J 0 l.}     ..@ 7.9 $ @.x       y [.$ ) 9 {.                        f }.w.e.    {.O.S                         [ d Z { ].|.      | m 8 3 D  X                          y [.$ ) 9 {.        k.].J J 0 l.}     / i.o 8 .XM |.                      X { XX+   oX* OX4     + 7 J 8 n A.d.          ^.[.          ..@ 7.9 $ @.x                     ",
"                ~  .                                                                                                                                                                                                                                                                                                                                        f ,                                             ",
"                ~  .                                                                                                                                                                                                                                                                                                                                      k.j.                                              ",
"              +XL @XY (                                                                                                                                                                                                                                                                                                                               @ 3 @X= r                                             ",
"                                                                                                                                                                                                                                                                                                                                                                                                            ",
"                                                                                                                                                                                                                                                                                                                                                                                                            ",
"                                                                                                                                                                                                                                                                                                                                                                                                            ",
"                                                                                                                                                                                                                                                                                                                                                                                                            ",
"                                                                                                                                                                                                                                                                                                                                                                                                            ",
"                                                                                                                                                                                                                                                                                                                                                                                                            ",
"                                                                                                                                                                                                                                                                                                                                                                                                            ",
"                                                                                                                                                                                                                                                                                                                                                                                                            "
};
